<!-- svg sprite -->
<svg aria-hidden="true" style="position: absolute; width: 0; height: 0; overflow: hidden;"
  version="1.1" xmlns="http://www.w3.org/2000/svg" xmlns:xlink="http://www.w3.org/1999/xlink">
  <defs>
    <!-- dash icon svg -->
    <symbol xmlns="http://www.w3.org/2000/svg" width="177" height="134.928" viewBox="0 0 177.49 134.928"
        class="svg-dotted-line" id="dash-icon">
        <path id="path" d="M-18870.2-5013.562v95.043c0,26.781-22.783,38.885-35.471,38.885h-141.02"
        transform="translate(19047.193 5014.062)" fill="none" stroke="#020a19" stroke-linecap="round"
        stroke-width="1" stroke-dasharray="7">
        </path>
    </symbol>
    <symbol xmlns="http://www.w3.org/2000/svg" width="177" height="134.928" viewBox="0 0 177.49 134.928" id="dash-icon1">
        <path id="path" d="M-18870.2-4879.633v-95.043c0-26.781-22.783-38.885-35.471-38.885h-141.02" transform="translate(19047.193 5014.062)" fill="none" stroke="#020a19" stroke-linecap="round" stroke-width="1" stroke-dasharray="7">
        </path>
    </symbol>
    <!-- adapt -->
    <symbol xmlns="http://www.w3.org/2000/svg" viewBox="0 0 40 40"  id="adapt-icon">
        <g id="icon" transform="translate(-350 -1026)"><rect id="bg" width="40" height="40" rx="6" transform="translate(350 1026)" fill="#f8faff"></rect><g id="icon-2" data-name="icon" transform="translate(360.637 1033.314)">
        <path id="Path_4886" data-name="Path 4886" d="M31.112,22.38a.25.25,0,0,0-.274.055l-1.547,1.56L27.217,21.9a6.527,6.527,0,0,0-.766-8.236A6.347,6.347,0,0,0,23.1,11.88V8.921h2.188a.254.254,0,0,0,.168-.442l-3.372-3.4a.25.25,0,0,0-.355,0l-3.381,3.41a.255.255,0,0,0-.054.276.251.251,0,0,0,.232.156h2.187v2.958a6.345,6.345,0,0,0-3.355,1.788,6.526,6.526,0,0,0-.766,8.236l-2.075,2.092-1.547-1.56a.25.25,0,0,0-.274-.055.253.253,0,0,0-.155.234v4.822a.253.253,0,0,0,.251.254h4.782a.254.254,0,0,0,.168-.442L16.2,25.7l2.074-2.092c.15.1.3.2.461.291a6.38,6.38,0,0,0,3.163.836h0a6.524,6.524,0,0,0,.719-.04,6.356,6.356,0,0,0,2.9-1.087L27.6,25.7l-1.547,1.56a.255.255,0,0,0-.054.276.252.252,0,0,0,.232.157h4.782a.252.252,0,0,0,.251-.254V22.614A.252.252,0,0,0,31.112,22.38Z" transform="translate(-12.54 -5.004)" fill="#3371ed" stroke="#3371ed" stroke-width="1"></path><ellipse id="Ellipse_25" data-name="Ellipse 25" cx="3.046" cy="3.048" rx="3.046" ry="3.048" transform="translate(6.317 10.111)" fill="#e0eafd" stroke="#3371ed" stroke-width="1"></ellipse></g></g>
    </symbol>
    <!-- check fill -->
    <symbol xmlns="http://www.w3.org/2000/svg"  viewBox="0 0 40 40" id="check-fill">
    <g id="icon" transform="translate(-350 -1026)" ><rect id="bg" width="40" height="40" rx="6" transform="translate(350 1026)" fill="#f8faff"></rect><g id="icon-2" data-name="icon" transform="translate(360.652 1034.657)"><path id="Path_4884" data-name="Path 4884" d="M274.137,195.4l1.177.515a.562.562,0,0,0,.538,0l1.345-.584a13.1,13.1,0,0,0,7.9-12.118v-6.66a.726.726,0,0,0-.37-.618l-8.776-2.56a.7.7,0,0,0-.639,0l-8.574,2.594a.724.724,0,0,0-.336.618v6.8a13.143,13.143,0,0,0,7.734,12.015Z" transform="translate(-266.403 -173.299)" fill="#3371ed"></path><path id="Path_6831" data-name="Path 6831" d="M-12748.986,956.841l3.372,3.372,5.7-5.7" transform="translate(12754.033 -946.022)" fill="none" stroke="#fff" stroke-width="1"></path></g></g>
    </symbol>
    <!-- automation -->
    <symbol xmlns="http://www.w3.org/2000/svg"  viewBox="0 0 40 40" id="automation-icon">
    <g id="icon" transform="translate(-350 -1026)"><rect id="bg" width="40" height="40" rx="6" transform="translate(350 1026)" fill="#f8faff"></rect><path id="settings" d="M18.17,15.878l2.118.733a13.582,13.582,0,0,0,.652,1.629L19.962,20.2a.866.866,0,0,0,.163.978L22.651,23.7a.866.866,0,0,0,.978.163l1.955-.978a9.709,9.709,0,0,0,1.629.652l.733,2.118a.782.782,0,0,0,.733.57h3.584a.981.981,0,0,0,.815-.57l.733-2.118a13.583,13.583,0,0,0,1.629-.652l1.955.978a.866.866,0,0,0,.978-.163L40.9,21.174a.866.866,0,0,0,.163-.978l-.978-1.955a9.71,9.71,0,0,0,.652-1.629l2.118-.733a.809.809,0,0,0,.57-.815V11.479a.981.981,0,0,0-.57-.815l-2.118-.57a9.71,9.71,0,0,0-.652-1.629l.978-1.955a.888.888,0,0,0-.163-.978L38.292,2.925a.866.866,0,0,0-.978-.163l-1.955.978a9.709,9.709,0,0,0-1.629-.652L33,.97A.809.809,0,0,0,32.182.4H28.6a.782.782,0,0,0-.733.57l-.733,2.118A13.582,13.582,0,0,0,25.5,3.74l-1.874-.9a.866.866,0,0,0-.978.163L20.125,5.532a.866.866,0,0,0-.163.978l.978,1.955a9.71,9.71,0,0,0-.652,1.629l-2.118.733a.809.809,0,0,0-.57.815v3.584A.912.912,0,0,0,18.17,15.878Z" transform="translate(339.488 1032.688)" fill="#3371ed"></path><path id="play" d="M5.2,1.067a1,1,0,0,1,1.6,0l4,5.333A1,1,0,0,1,10,8H2a1,1,0,0,1-.8-1.6Z" transform="translate(375.55 1040) rotate(90)" fill="#fff"></path></g>
    </symbol>
    <!-- unified -->
    <symbol xmlns="http://www.w3.org/2000/svg" viewBox="0 0 40 40" id="unified-icon">
    <g id="icon" transform="translate(-350 -1026)"><rect id="bg" width="40" height="40" rx="6" transform="translate(350 1026)" fill="#f8faff"></rect><g id="icon-2" data-name="icon" transform="translate(-169.518 -292.287)"><path id="Path_4890" data-name="Path 4890" d="M-2352.028,1328.551l1.324.582.872,1.594v6.487l-.7.673-1.919.251-2.3-.251v-7.31l.875-1.268.872-.758Z" transform="translate(2900.665 -1.124)" fill="#3371ed"></path><path id="Path_4888" data-name="Path 4888" d="M-2400.021,1328.551l-1.22,1.094-.512,1.688v18.06l-1.005.341h-15.724l-1.012-.765v-19.027l1.012-1.391Z" transform="translate(2947.591 -1.124)" fill="#3371ed"></path><g id="noun-policy-5740034" transform="translate(527.942 1327)"><path id="Path_4887" data-name="Path 4887" d="M27.34,3H9.253A2.313,2.313,0,0,0,6.942,5.311V23.967a1.381,1.381,0,0,0,1.379,1.379H23.959a1.381,1.381,0,0,0,1.379-1.379v-10.7h3.377a1.38,1.38,0,0,0,1.379-1.379V6.036A2.91,2.91,0,0,0,27.34,3ZM24.586,23.967a.627.627,0,0,1-.627.627H8.321a.627.627,0,0,1-.627-.627V5.311A1.56,1.56,0,0,1,9.252,3.752H25.528a3.168,3.168,0,0,0-.943,2.284Zm4.756-12.082a.627.627,0,0,1-.627.627H25.338V6.036a2.159,2.159,0,0,1,2-2.284,2.16,2.16,0,0,1,2,2.284ZM23.131,25.2a.376.376,0,0,1-.376.376H9.525a.376.376,0,1,1,0-.752H22.755A.376.376,0,0,1,23.131,25.2Z" transform="translate(-6.942 -3)" fill="#f8faff"></path><path id="Path_6795" data-name="Path 6795" d="M6.341,35.232h10.3" transform="translate(-2.296 -21.896)" fill="none" stroke="#f8faff" stroke-linecap="round" stroke-width="1"></path><path id="Path_6796" data-name="Path 6796" d="M6.341,35.232h10.3" transform="translate(-2.296 -19.151)" fill="none" stroke="#f8faff" stroke-linecap="round" stroke-width="1"></path><path id="Path_6797" data-name="Path 6797" d="M6.341,35.232h10.3" transform="translate(-2.296 -16.406)" fill="none" stroke="#f8faff" stroke-linecap="round" stroke-width="1"></path></g><path id="Path_6966" data-name="Path 6966" d="M533.9,1334.671l2.109,2.109,4.777-4.777" fill="none" stroke="#f8faff" stroke-linecap="round" stroke-linejoin="round" stroke-width="1"></path></g></g>
    </symbol>
    <!-- check -->
    <svg xmlns="http://www.w3.org/2000/svg"  viewBox="0 0 16.188 11.021" id="check-icon">
      <path id="Path_4891" data-name="Path 4891" d="M-1939.354-218.176l5.416,5.14,9.4-8.917" transform="translate(1940.042 222.678)" fill="none" stroke-width="2"></path>
    </svg>
  </defs>
</svg>